<svg width="400" height="220" xmlns="http://www.w3.org/2000/svg">
 <g>
  <title>background</title>
  <rect x="-1" y="-1" width="402" height="222" id="canvas_background" fill="none"/>
 </g>

 <g>
  <title>Layer 1</title>
  <g id="main" stroke="null">
   <path class="link" fill="none" stroke-width="3px" d="m4.336665,133.561059l0,-1.00016l23.72191,0" id="svg_3" stroke="#1b2944"/>
   <path stroke="#1b2944" class="link" fill="none" stroke-width="3px" d="m28.11692,139.749273l0,-60.826275l14.01753,0" id="svg_5"/>
   <path stroke="#1b2944" class="link" fill="none" stroke-width="3px" d="m28.116914,138.44473l0,69.287561l200.267564,0" id="svg_6"/>
   <path class="link" fill="none" stroke-width="3px" d="m42.13445,78.923l0,-49l68.21863,0" id="svg_7" stroke="#1b2944"/>
   <path class="link" fill="none" stroke-width="3px" d="m42.13445,78.923l0,50l52.3321,0" id="svg_8" stroke="#1b2944"/>
   <path class="link" fill="none" stroke-width="3px" d="m110.35308,29.923l0,-17l270.07103,0" id="svg_9" stroke="#1b2944"/>
   <path class="link" fill="none" stroke-width="3px" d="m110.35308,29.923l0,16l129.89576,0" id="svg_10" stroke="#1b2944"/>
   <path class="link" fill="none" stroke-width="3px" d="m94.46655,128.923l0,-33l82.23616,0" id="svg_11" stroke="#1b2944"/>
   <path class="link" fill="none" stroke-width="3px" d="m94.46655,128.923l0,33l56.07011,0" id="svg_12" stroke="#1b2944"/>
   <path class="link" fill="none" stroke-width="3px" d="m176.70271,95.923l0,-17l47.6596,0" id="svg_13" stroke="#1b2944"/>
   <path class="link" fill="none" stroke-width="3px" d="m176.70271,95.923l0,16l30.83856,0" id="svg_14" stroke="#1b2944"/>
   <path class="link" fill="none" stroke-width="3px" d="m150.53666,161.923l0,-17l87.84317,0" id="svg_15" stroke="#1b2944"/>
   <path stroke="#1b2944" class="link" fill="none" stroke-width="3px" d="m150.53666,161.923l0,16l185.03136,0" id="svg_16"/>
   <g class="leaf node cid_147" id="svg_78" stroke="null">
    <circle cx="380.424112" cy="12.923002" r="9.345018" fill="#3ABBBA" id="svg_79" stroke="null"/>
    <circle cx="380.424112" cy="12.923002" r="5.607011" fill="#FFFFFF" id="svg_80" stroke="null"/>
    <rect class="pointer" fill="red" width="13.083026" height="14" x="373.882599" y="5.923002" opacity="0" id="svg_81" stroke="null"/>
    <text class="name" text-anchor="start" stroke-width="0.3px" fill="#A3389D" font-size="9px" y="12.923002" x="406.476576" id="svg_82" stroke="#1b2944" transform="matrix(0.9345018267631531,0,0,1,0.5710088537163074,0) "/>
   </g>
   <g class="leaf node cid_148" id="svg_83" stroke="null">
    <circle cx="240.248838" cy="45.923002" r="9.345018" fill="#3ABBBA" id="svg_84" stroke="null"/>
    <circle cx="240.248838" cy="45.923002" r="5.607011" fill="#FFFFFF" id="svg_85" stroke="null"/>
    <rect class="pointer" fill="red" width="13.083026" height="14" x="233.707325" y="38.923002" opacity="0" id="svg_86" stroke="null"/>
    <text class="name" text-anchor="start" stroke-width="0.3px" fill="#C8FE2E" font-size="9px" y="45.923002" x="256.476576" id="svg_87" stroke="#1b2944" transform="matrix(0.9345018267631531,0,0,1,0.5710088537163074,0) "/>
   </g>
   <g class="leaf node cid_151" id="svg_98" stroke="null">
    <circle cx="224.362307" cy="78.923002" r="9.345018" fill="#3ABBBA" id="svg_99" stroke="null"/>
    <circle cx="224.362307" cy="78.923002" r="5.607011" fill="#FFFFFF" id="svg_100" stroke="null"/>
    <rect class="pointer" fill="red" width="13.083026" height="14" x="217.820794" y="71.923002" opacity="0" id="svg_101" stroke="null"/>
    <text class="name" text-anchor="start" stroke-width="0.3px" fill="#4DB4D6" font-size="9px" y="78.923002" x="239.476576" id="svg_102" stroke="#1b2944" transform="matrix(0.9345018267631531,0,0,1,0.5710088537163074,0) "/>
   </g>
   <g class="leaf node cid_152" id="svg_103" stroke="null">
    <circle cx="207.541274" cy="111.923002" r="9.345018" fill="#3ABBBA" id="svg_104" stroke="null"/>
    <circle cx="207.541274" cy="111.923002" r="5.607011" fill="#FFFFFF" id="svg_105" stroke="null"/>
    <rect class="pointer" fill="red" width="13.083026" height="14" x="200.999761" y="104.923002" opacity="0" id="svg_106" stroke="null"/>
    <text class="name" text-anchor="start" stroke-width="0.3px" fill="#25ACD9" font-size="9px" y="111.923002" x="221.476576" id="svg_107" stroke="#1b2944" transform="matrix(0.9345018267631531,0,0,1,0.5710088537163074,0) "/>
   </g>
   <g class="leaf node cid_154" id="svg_113" stroke="null">
    <circle cx="238.379834" cy="144.923002" r="9.345018" fill="#3ABBBA" id="svg_114" stroke="null"/>
    <circle cx="238.379834" cy="144.923002" r="5.607011" fill="#FFFFFF" id="svg_115" stroke="null"/>
    <rect class="pointer" fill="red" width="13.083026" height="14" x="231.838321" y="137.923002" opacity="0" id="svg_116" stroke="null"/>
    <text class="name" text-anchor="start" stroke-width="0.3px" fill="#37BD42" font-size="9px" y="144.923002" x="254.476576" id="svg_117" stroke="#1b2944" transform="matrix(0.9345018267631531,0,0,1,0.5710088537163074,0) "/>
   </g>
   <g class="leaf node cid_155" id="svg_118" stroke="null">
    <circle cx="335.568024" cy="177.923002" r="9.345018" fill="#3ABBBA" id="svg_119" stroke="null"/>
    <circle cx="335.568024" cy="177.923002" r="5.607011" fill="#FFFFFF" id="svg_120" stroke="null"/>
    <rect class="pointer" fill="red" width="13.083026" height="14" x="329.026511" y="170.923002" opacity="0" id="svg_121" stroke="null"/>
    <text class="name" text-anchor="start" stroke-width="0.3px" fill="#37BA49" font-size="9px" y="177.923002" x="358.476576" id="svg_122" stroke="#1b2944" transform="matrix(0.9345018267631531,0,0,1,0.5710088537163074,0) "/>
   </g>
   <g class="leaf node cid_168" id="svg_183" stroke="null">
    <circle cx="233.630516" cy="208.421213" r="9.345025" fill="#3ABBBA" id="svg_184" stroke="null"/>
    <circle cx="233.630516" cy="208.421213" r="5.607011" fill="#FFFFFF" id="svg_185" stroke="null"/>
    <rect class="pointer" fill="red" width="13.083026" height="14" x="227.089004" y="201.421213" opacity="0" id="svg_186" stroke="null"/>
    <text class="name" text-anchor="start" stroke-width="0.3px" fill="#095C10" font-size="9px" y="208.421213" x="249.394384" id="svg_187" stroke="#1b2944" transform="matrix(0.9345018267631531,0,0,1,0.5710088537163074,0) "/>
   </g>
   <text fill="#000000" stroke-width="0" stroke-opacity="null" fill-opacity="null" x="220.938139" y="238.846124" id="svg_314" font-size="24" font-family="Helvetica, Arial, sans-serif" text-anchor="start" xml:space="preserve" stroke="#1b2944" transform="matrix(0.9345018267631531,0,0,1,0.5710088537163074,0) "/>
  </g>
 </g>
</svg>