<svg width="400" height="300" xmlns="http://www.w3.org/2000/svg">

 <g>
  <title>background</title>
  <rect fill="none" id="canvas_background" height="302" width="402" y="-1" x="-1"/>
 </g>
 <g>
  <title>Layer 1</title>
  <g stroke="null" id="main">
   <path stroke="#1b2944" id="svg_3" d="m5.641011,222.256513l0,-1.000167l23.721913,0" stroke-width="3px" fill="none" class="link"/>
   <path stroke="#1b2944" id="svg_5" d="m28.116923,221.923002l0,-143l14.017527,0" stroke-width="3px" fill="none" class="link"/>
   <path stroke="#1b2944" id="svg_6" d="m28.116922,221.92301l0,61.461489l200.702335,0" stroke-width="3px" fill="none" class="link"/>
   <path stroke="#1b2944" id="svg_7" d="m42.134451,78.923002l0,-49l68.218633,0" stroke-width="3px" fill="none" class="link"/>
   <path stroke="#1b2944" id="svg_8" d="m42.134451,78.923002l0,50l52.332102,0" stroke-width="3px" fill="none" class="link"/>
   <path stroke="#1b2944" id="svg_9" d="m110.353084,29.923002l0,-17l270.071028,0" stroke-width="3px" fill="none" class="link"/>
   <path stroke="#1b2944" id="svg_10" d="m110.353084,29.923002l0,16l129.895754,0" stroke-width="3px" fill="none" class="link"/>
   <path stroke="#1b2944" id="svg_11" d="m94.466553,128.923002l0,-33l82.236161,0" stroke-width="3px" fill="none" class="link"/>
   <path stroke="#1b2944" id="svg_12" d="m94.466553,128.923002l0,33l56.07011,0" stroke-width="3px" fill="none" class="link"/>
   <path stroke="#1b2944" id="svg_13" d="m176.702714,95.923002l0,-17l47.659593,0" stroke-width="3px" fill="none" class="link"/>
   <path stroke="#1b2944" id="svg_14" d="m176.702714,95.923002l0,16l30.83856,0" stroke-width="3px" fill="none" class="link"/>
   <path stroke="#1b2944" id="svg_15" d="m150.536662,161.923002l0,-17l87.843172,0" stroke-width="3px" fill="none" class="link"/>
   <path stroke="#1b2944" id="svg_16" d="m150.536662,161.923002l0,16l185.031362,0" stroke-width="3px" fill="none" class="link"/>
   <g stroke="null" id="svg_78" class="leaf node cid_147">
    <circle stroke="null" id="svg_79" fill="#3ABBBA" r="9.345018" cy="12.923002" cx="380.424112"/>
    <circle stroke="null" id="svg_80" fill="#FFFFFF" r="5.607011" cy="12.923002" cx="380.424112"/>
    <rect stroke="null" id="svg_81" opacity="0" y="5.923002" x="373.882599" height="14" width="13.083026" fill="red" class="pointer"/>
    <text transform="matrix(0.9345018267631531,0,0,1,0.5710088537163074,0) " stroke="#1b2944" id="svg_82" x="406.476576" y="12.923002" font-size="9px" fill="#A3389D" stroke-width="0.3px" text-anchor="start" class="name"/>
   </g>
   <g stroke="null" id="svg_83" class="leaf node cid_148">
    <circle stroke="null" id="svg_84" fill="#3ABBBA" r="9.345018" cy="45.923002" cx="240.248838"/>
    <circle stroke="null" id="svg_85" fill="#FFFFFF" r="5.607011" cy="45.923002" cx="240.248838"/>
    <rect stroke="null" id="svg_86" opacity="0" y="38.923002" x="233.707325" height="14" width="13.083026" fill="red" class="pointer"/>
    <text transform="matrix(0.9345018267631531,0,0,1,0.5710088537163074,0) " stroke="#1b2944" id="svg_87" x="256.476576" y="45.923002" font-size="9px" fill="#C8FE2E" stroke-width="0.3px" text-anchor="start" class="name"/>
   </g>
   <g stroke="null" id="svg_98" class="leaf node cid_151">
    <circle stroke="null" id="svg_99" fill="#3ABBBA" r="9.345018" cy="78.923002" cx="224.362307"/>
    <circle stroke="null" id="svg_100" fill="#FFFFFF" r="5.607011" cy="78.923002" cx="224.362307"/>
    <rect stroke="null" id="svg_101" opacity="0" y="71.923002" x="217.820794" height="14" width="13.083026" fill="red" class="pointer"/>
    <text transform="matrix(0.9345018267631531,0,0,1,0.5710088537163074,0) " stroke="#1b2944" id="svg_102" x="239.476576" y="78.923002" font-size="9px" fill="#4DB4D6" stroke-width="0.3px" text-anchor="start" class="name"/>
   </g>
   <g stroke="null" id="svg_103" class="leaf node cid_152">
    <circle stroke="null" id="svg_104" fill="#3ABBBA" r="9.345018" cy="111.923002" cx="207.541274"/>
    <circle stroke="null" id="svg_105" fill="#FFFFFF" r="5.607011" cy="111.923002" cx="207.541274"/>
    <rect stroke="null" id="svg_106" opacity="0" y="104.923002" x="200.999761" height="14" width="13.083026" fill="red" class="pointer"/>
    <text transform="matrix(0.9345018267631531,0,0,1,0.5710088537163074,0) " stroke="#1b2944" id="svg_107" x="221.476576" y="111.923002" font-size="9px" fill="#25ACD9" stroke-width="0.3px" text-anchor="start" class="name"/>
   </g>
   <g stroke="null" id="svg_113" class="leaf node cid_154">
    <circle stroke="null" id="svg_114" fill="#3ABBBA" r="9.345018" cy="144.923002" cx="238.379834"/>
    <circle stroke="null" id="svg_115" fill="#FFFFFF" r="5.607011" cy="144.923002" cx="238.379834"/>
    <rect stroke="null" id="svg_116" opacity="0" y="137.923002" x="231.838321" height="14" width="13.083026" fill="red" class="pointer"/>
    <text transform="matrix(0.9345018267631531,0,0,1,0.5710088537163074,0) " stroke="#1b2944" id="svg_117" x="254.476576" y="144.923002" font-size="9px" fill="#37BD42" stroke-width="0.3px" text-anchor="start" class="name"/>
   </g>
   <g stroke="null" id="svg_118" class="leaf node cid_155">
    <circle stroke="null" id="svg_119" fill="#3ABBBA" r="9.345018" cy="177.923002" cx="335.568024"/>
    <circle stroke="null" id="svg_120" fill="#FFFFFF" r="5.607011" cy="177.923002" cx="335.568024"/>
    <rect stroke="null" id="svg_121" opacity="0" y="170.923002" x="329.026511" height="14" width="13.083026" fill="red" class="pointer"/>
    <text transform="matrix(0.9345018267631531,0,0,1,0.5710088537163074,0) " stroke="#1b2944" id="svg_122" x="358.476576" y="177.923002" font-size="9px" fill="#37BA49" stroke-width="0.3px" text-anchor="start" class="name"/>
   </g>
   <g stroke="null" id="svg_183" class="leaf node cid_168">
    <circle stroke="null" id="svg_184" fill="#3ABBBA" r="9.345025" cy="282.769075" cx="219.760953"/>
    <circle stroke="null" id="svg_185" fill="#FFFFFF" r="5.607011" cy="282.769075" cx="219.760953"/>
    <rect stroke="null" id="svg_186" opacity="0" y="275.769075" x="213.219441" height="14" width="13.083026" fill="red" class="pointer"/>
    <text transform="matrix(0.9345018267631531,0,0,1,0.5710088537163074,0) " stroke="#1b2944" id="svg_187" x="234.552719" y="282.769075" font-size="9px" fill="#095C10" stroke-width="0.3px" text-anchor="start" class="name"/>
   </g>
   <text transform="matrix(0.9345018267631531,0,0,1,0.5710088537163074,0) " stroke="#1b2944" xml:space="preserve" text-anchor="start" font-family="Helvetica, Arial, sans-serif" font-size="24" id="svg_314" y="238.846124" x="220.938139" fill-opacity="null" stroke-opacity="null" stroke-width="0" fill="#000000"/>
  </g>
  <text stroke="#1b2944" transform="matrix(4.299950167082329,0,0,4.471257764184031,-283.19366108476817,-754.5696214975488) " xml:space="preserve" text-anchor="start" font-family="'Open Sans', Helvetica, Arial, sans-serif" font-size="24" id="svg_315" y="225.443082" x="74.529101" stroke-opacity="null" stroke-width="0" fill="#3abbba">Phy</text>
  <text stroke="#1b2944" transform="matrix(3.5800604454098317,0,0,3.4255687457117467,-888.0814287476109,-679.8563771774) " xml:space="preserve" text-anchor="start" font-family="'Open Sans', Helvetica, Arial, sans-serif" font-size="24" id="svg_316" y="272.81328" x="310.934346" stroke-opacity="null" stroke-width="0" fill="#1b2944">D3</text>
 </g>
</svg>